<?xml version="1.0" encoding="UTF-8"?>
<svg width="68px" height="68px" viewBox="0 0 68 68" version="1.1" xmlns="http://www.w3.org/2000/svg" xmlns:xlink="http://www.w3.org/1999/xlink">
    <title>Logos/Coloured/racoon</title>
    <defs>
        <polygon id="path-1" points="0 -0.00265625 68.0023913 -0.00265625 68.0023913 67.9997351 0 67.9997351"></polygon>
    </defs>
    <g id="Guardian" stroke="none" stroke-width="1" fill="none" fill-rule="evenodd">
        <g id="Guardian---Overview-Copy" transform="translate(-24.000000, -71.000000)">
            <g id="Raccoon" transform="translate(24.000000, 71.000000)">
                <g id="Group-3" transform="translate(0.000000, 0.002656)">
                    <mask id="mask-2" fill="white">
                        <use xlink:href="#path-1"></use>
                    </mask>
                    <g id="Clip-2"></g>
                    <path d="M37.8208562,41.4471687 C37.6136687,41.4312312 37.4808562,41.2182 37.5392937,41.016325 C37.7730437,40.2146687 38.1449187,39.6409187 38.5911687,39.2371687 C38.6071062,39.9915437 39.2233562,40.60195 39.9830438,40.60195 C40.0999188,40.60195 40.2114812,40.5807 40.3230437,40.5541375 C40.1849187,40.4590437 40.089825,40.3097625 40.089825,40.13445 C40.089825,39.8534187 40.3230437,39.6196687 40.6046062,39.6196687 C40.8542937,39.6196687 41.0508562,39.7997625 41.0986687,40.0340437 C41.2686687,39.7997625 41.3749187,39.5182 41.3749187,39.2047625 C41.3749187,38.870075 41.2527312,38.5677937 41.0567,38.3282 C41.8742937,38.3074812 42.6132625,38.4668562 43.0217938,38.5832 C43.2183562,38.636325 43.3086688,38.848825 43.2342937,39.0347625 C42.2196062,41.5741375 38.9471062,41.5374812 37.8208562,41.4471687 M25.1505437,38.5832 C25.5596062,38.4668562 26.2980437,38.3074812 27.1167,38.3282 C26.9196062,38.5677937 26.7974187,38.870075 26.7974187,39.2047625 C26.7974187,39.5182 26.9036687,39.7997625 27.0742,40.0340437 C27.1214812,39.7997625 27.3180437,39.6196687 27.5677312,39.6196687 C27.8492937,39.6196687 28.0777312,39.8534187 28.0777312,40.13445 C28.0777312,40.3097625 27.9874187,40.4590437 27.8492937,40.5541375 C27.9608562,40.5807 28.0724187,40.60195 28.1892937,40.60195 C28.9489812,40.60195 29.5652312,39.9915437 29.5811687,39.2371687 C30.0274187,39.6409187 30.3992937,40.2146687 30.6330437,41.016325 C30.6914812,41.2182 30.5586687,41.4312312 30.3467,41.4471687 C29.2252312,41.5374812 25.9527312,41.5741375 24.9380437,39.0347625 C24.8636687,38.848825 24.9539812,38.636325 25.1505437,38.5832 M33.7036687,-0.0014875 C15.2427312,0.1578875 0.16054375,15.2459187 0.00116875,33.7015437 C-0.157675,52.71445 15.2852312,68.1578875 34.2986687,67.9985125 C52.7542937,67.8396687 67.842325,52.75695 68.0011687,34.2960125 C68.1605437,15.2831062 52.7171062,-0.16033125 33.7036687,-0.0014875" id="Fill-1" fill="#EC9600" mask="url(#mask-2)"></path>
                </g>
                <path d="M33.9714187,50.4831469 C32.7490125,50.3524594 31.7901062,49.8068656 31.1951062,48.7114281 C30.8620125,48.0973031 31.0283128,47.7041781 31.6897,47.5038969 C33.230325,47.0369281 34.7789187,47.0480844 36.320075,47.5049594 C36.9857313,47.7020531 37.1557312,48.0866781 36.8183875,48.7087719 C36.2117,49.8297094 35.2267625,50.3726469 33.9714187,50.4831469" id="Fill-4" fill="#545454"></path>
                <path d="M35.6756687,53.4200563 L32.4488562,53.4200563 C33.2807937,54.1999313 34.8602,54.1829313 35.6756687,53.4200563" id="Fill-6" fill="#E4E4E4"></path>
                <path d="M16.4494656,42.1133562 C19.0154031,43.7814812 21.8719344,44.3520437 24.9404344,44.4296062 C24.6923406,44.9066688 24.4251219,45.3221062 24.0872469,45.6684812 C23.7451219,46.0196375 23.3328719,46.3017313 22.8781219,46.6736062 C25.1093719,46.6295125 28.3165281,44.6251063 28.8823094,42.9150125 C24.6365594,43.825575 20.5496531,42.9155437 16.4494656,42.1133562" id="Fill-8" fill="#E4E4E4"></path>
                <path d="M49.465325,23.6373844 C49.4881688,23.7149469 49.5110125,23.7930406 49.5338563,23.8711344 C48.5696375,24.3678531 47.60595,24.8640406 46.5466375,25.4096344 C48.5531688,25.8011656 50.1065438,24.8794469 51.7311063,23.8302281 C51.841075,24.7041344 51.930325,25.4117594 52.0190438,26.1199156 C52.1268875,26.1124781 52.2336688,26.1055719 52.3409812,26.0986656 C52.3521375,25.0951344 52.414825,24.0894781 52.3585125,23.0896656 C52.2990125,22.0308844 51.9606063,21.8497281 50.9204188,22.0786969 C49.6257625,22.3639781 48.3252625,22.6248219 47.0226375,22.8718531 C46.320325,23.0046656 45.6073875,23.0843531 44.7037313,23.2171656 C46.3660125,23.9375406 47.9454188,23.5146656 49.465325,23.6373844" id="Fill-10" fill="#E4E4E4"></path>
                <path d="M19.7194687,25.4314156 C20.2629375,25.5307594 20.8388125,25.4521344 21.5528125,25.4521344 C20.4058437,24.8624469 19.4432187,24.3667906 18.4805937,23.8716656 C18.513,23.7850719 18.5454062,23.6984781 18.5778125,23.6124156 C20.0908125,23.5635406 21.6463125,23.9083219 23.0950312,23.2288531 C22.6084063,23.1018844 22.12125,23.0875406 21.6489687,22.9977594 C20.108875,22.7045094 18.5730312,22.3910719 17.0387812,22.0701969 C16.03525,21.8603531 15.7159687,22.0452281 15.657,23.0742594 C15.606,23.9529469 15.6649687,24.8390719 15.6936562,25.7220094 C15.6984375,25.8638531 15.7961875,26.0025094 15.8514375,26.1432906 C15.8976562,26.1321344 15.943875,26.1220406 15.9895625,26.1114156 C16.0878437,25.3926344 16.1855937,24.6733219 16.2976875,23.8482906 C16.95325,24.2414156 17.4388125,24.5909781 17.9721875,24.8369469 C18.5294687,25.0940719 19.1191562,25.3225094 19.7194687,25.4314156" id="Fill-12" fill="#E4E4E4"></path>
                <path d="M39.1562594,42.9491719 C39.6211031,44.6252656 43.3308219,46.8607656 45.0648219,46.5972656 C44.3008844,45.9602969 43.4078531,45.4630469 43.0551031,44.3325469 C46.1464469,44.3484844 49.0098844,43.7949219 51.6725094,42.1172344 C49.5161656,42.4614844 47.4751031,42.7866094 45.4345719,43.1143906 C43.3430406,43.4490781 41.2584156,43.3024531 39.1562594,42.9491719" id="Fill-14" fill="#E4E4E4"></path>
                <path d="M36.8185469,48.7088781 C36.2113281,49.8292844 35.2274531,50.3727531 33.9710469,50.4832531 C32.7491719,50.3525656 31.7897344,49.8064406 31.1952656,48.7115344 C30.8621719,48.0968781 31.0284524,47.7037531 31.6893281,47.5034719 C33.2304844,47.0365031 34.7785469,47.0487219 36.3202344,47.5045344 C36.9853594,47.7016281 37.1558906,48.0862531 36.8185469,48.7088781 M35.3475156,40.1530969 C35.2497656,39.3854406 35.2221406,38.6087531 35.1668906,37.8357844 C35.1307656,37.3401281 35.2720781,37.1685344 35.8261719,37.3225969 C37.1075469,37.6801281 38.4340781,37.7720344 39.6660469,37.2089094 C40.9670781,36.6133781 42.2096719,35.8887531 43.4602344,35.1890969 C44.6879531,34.5021906 45.9725156,34.2280656 47.3574844,34.5319406 C47.7346719,34.6153469 48.1028281,34.7396594 48.6765781,34.9022219 C48.2308594,34.0070656 47.8696094,33.2898781 47.5147344,32.5684406 C46.3321719,30.1655969 45.1501406,27.7600969 43.4676719,25.6526281 C41.1551406,22.7573156 38.2683281,21.4908156 34.5591406,22.5219719 C34.1777031,22.6276906 33.7149844,22.5873156 33.3234531,22.4863781 C30.3803281,21.7282844 27.7942031,22.3179719 25.6235156,24.4817531 C22.7197031,27.3760031 21.2948906,31.1616906 19.4317969,34.6822844 C19.4695156,34.7364719 19.5067031,34.7917219 19.5444219,34.8459094 C19.7686094,34.7821594 19.9933281,34.7194719 20.2175156,34.6541281 C21.3076406,34.3364406 22.4158281,34.2370969 23.4655781,34.7178781 C24.4457344,35.1673156 25.3982656,35.6921906 26.3157344,36.2600969 C28.1894531,37.4198156 30.1513594,37.9489406 32.3241719,37.2891281 C32.8022969,37.1435656 32.8819844,37.4176906 32.8447969,37.7736281 C32.7364219,38.8047844 32.6365469,39.8396594 32.4686719,40.8617844 C32.4155469,41.1853156 32.1913594,41.4998156 31.9878906,41.7765969 C31.3881094,42.5947219 30.6980156,43.3528156 30.1550781,44.2060031 C29.1398594,45.8018781 28.5113906,47.5268469 28.6936094,49.4744094 C28.8763594,51.4262219 29.5414844,52.0414094 31.4545156,52.0212219 C33.1561094,52.0031594 34.8587656,52.0238781 36.5603594,52.0143156 C37.0236094,52.0116594 37.4990781,52.0169719 37.9447969,51.9128469 C38.2109531,51.8506906 38.5482969,51.6350031 38.6471094,51.4001906 C38.9292031,50.7382531 39.2410469,50.0417844 39.2978906,49.3389406 C39.5321719,46.4521281 38.1015156,44.1905969 36.3282031,42.1240344 C35.8112969,41.5226594 35.4442031,40.9122531 35.3475156,40.1530969" id="Fill-16" fill="#E4E4E4"></path>
                <path d="M31.6892219,47.5036844 C31.0283461,47.7039656 30.8620656,48.0965594 31.1951594,48.7112156 C31.7896281,49.8066531 32.7490656,50.3522469 33.9709406,50.4829344 C35.2273469,50.3724344 36.2117531,49.8294969 36.8184406,48.7090906 C37.1557844,48.0864656 36.9857844,47.7013094 36.3201281,47.5047469 C34.7784406,47.0489344 33.2303781,47.0361844 31.6892219,47.5036844" id="Fill-18" fill="#3A3A3A"></path>
                <path d="M31.6892219,47.5036844 C31.0283461,47.7039656 30.8620656,48.0965594 31.1951594,48.7112156 C31.7896281,49.8066531 32.7490656,50.3522469 33.9709406,50.4829344 C35.2273469,50.3724344 36.2117531,49.8294969 36.8184406,48.7090906 C37.1557844,48.0864656 36.9857844,47.7013094 36.3201281,47.5047469 C34.7784406,47.0489344 33.2303781,47.0361844 31.6892219,47.5036844" id="Fill-20" fill="#545454"></path>
                <path d="M46.7458031,31.1261032 C46.2570531,30.9227506 45.7157094,30.7672456 45.1467406,30.7179906 C46.1141469,30.8594227 46.9583031,31.6749443 47.3944594,32.8429906 C47.1814281,32.2667075 46.9636156,31.6967572 46.7458031,31.1261032 M21.2458031,31.1823946 C21.0439281,31.7101264 20.8473656,32.2455982 20.6513344,32.7803665 C21.0763344,31.6967572 21.8567406,30.9431562 22.7603969,30.7398035 C22.2179906,30.8172042 21.7079906,30.9790419 21.2458031,31.1823946" id="Fill-22" fill="#545454"></path>
                <path d="M43.0539875,44.3343531 C43.409925,45.4600719 44.302425,45.9599781 45.0668938,46.5974781 C43.3302375,46.8631031 39.6215813,44.6265406 39.1546125,42.9477906 C41.2578313,43.3037281 43.3403313,43.4471656 45.4334563,43.1119469 C47.4734563,42.7884156 49.5139875,42.4638219 51.6708625,42.1190406 C49.0087688,43.7919469 46.1453313,44.3497594 43.0539875,44.3343531 M39.9833625,40.6044469 C40.0997062,40.6044469 40.2112687,40.5831969 40.3228312,40.5571656 C40.1852375,40.4615406 40.0896125,40.3127906 40.0896125,40.1374781 C40.0896125,39.8559156 40.3228312,39.6221656 40.604925,39.6221656 C40.8540812,39.6221656 41.0506437,39.8027906 41.0984562,40.0365406 C41.2689875,39.8027906 41.3752375,39.5206969 41.3752375,39.2077906 C41.3752375,38.8731031 41.2525187,38.5702906 41.0564875,38.3306969 C41.8740812,38.3099781 42.61305,38.4693531 43.0215812,38.5862281 C43.218675,38.6388219 43.3084562,38.8518531 43.2346125,39.0372594 C42.219925,41.5771656 38.947425,41.5399781 37.8206437,41.4496656 C37.6139875,41.4337281 37.481175,41.2212281 37.5390812,41.0193531 C37.7733625,40.2171656 38.1452375,39.6434156 38.5914875,39.2396656 C38.607425,39.9940406 39.2231437,40.6044469 39.9833625,40.6044469 M39.29805,49.3387281 C39.2390812,50.0399781 38.9314875,50.7359156 38.6493938,51.3999781 C38.5489875,51.6337281 38.2089875,51.8515406 37.9433625,51.9152906 C37.4965813,52.0162281 37.0237688,52.0103844 36.5615813,52.0162281 C34.8562687,52.0215406 33.1562687,52.0050719 31.4568,52.0215406 C29.5389875,52.0427906 28.874925,51.4265406 28.6943,49.4768531 C28.513675,47.5271656 29.14055,45.8006031 30.1552375,44.2068531 C30.6971125,43.3515406 31.3872063,42.5966344 31.98805,41.7785094 C32.189925,41.4974781 32.41305,41.1840406 32.4714875,40.8599781 C32.636175,39.8399781 32.7371125,38.8040406 32.8428313,37.7734156 C32.88055,37.4169469 32.8003312,37.1465406 32.3227375,37.2899781 C30.1493938,37.9481969 28.1896125,37.4227906 26.3143,36.2593531 C25.40055,35.6903844 24.4443,35.1649781 23.4668,34.7187281 C22.4143938,34.2352906 21.3093938,34.3362281 20.21555,34.6544469 C19.992425,34.7187281 19.7693,34.7824781 19.546175,34.8462281 C19.5089875,34.7931031 19.4712688,34.7346656 19.4340813,34.6815406 C19.5350187,34.4849781 19.6418,34.2937281 19.7368938,34.0966344 C19.8383625,33.9000719 19.9393,33.7040406 20.034925,33.5069469 C20.2309563,33.1143531 20.42805,32.7212281 20.6193,32.3281031 C20.6240812,32.3174781 20.6293938,32.3116344 20.6352375,32.3015406 C20.6352375,32.2962281 20.64055,32.2962281 20.64055,32.2909156 L20.64055,32.2856031 C20.64055,32.2856031 20.6453313,32.2802906 20.651175,32.2749781 C20.693675,32.1846656 20.736175,32.0996656 20.7781438,32.0093531 C20.8525188,31.8499781 20.9322063,31.6959156 21.012425,31.5365406 C21.0862688,31.3819469 21.1664875,31.2231031 21.2456437,31.0685094 C21.7078313,30.9149781 22.2178312,30.7927906 22.7602375,30.7343531 C22.8239875,30.7237281 22.8872063,30.7178844 22.9514875,30.7125719 C22.9722062,30.7125719 22.9993,30.7077906 23.0200188,30.7077906 C23.0683625,30.7024781 23.1209562,30.7024781 23.1687688,30.7024781 C23.3706437,30.6918531 23.57305,30.6918531 23.7802375,30.7077906 C24.0081438,30.7237281 24.2312688,30.7502906 24.4602375,30.7981031 C24.5712687,30.8193531 24.688675,30.8506969 24.8002375,30.8831031 C24.9165813,30.9149781 25.0339875,30.9521656 25.1508625,30.9999781 C25.4956437,31.1274781 25.836175,31.3027906 26.1650188,31.5365406 C29.2143937,33.6881031 31.2968937,34.6602906 32.8906437,33.0665406 C33.3262687,32.6309156 33.6131437,32.2909156 33.7937687,32.0306031 C33.9265812,31.8388219 34.19805,31.8388219 34.3308625,32.0306031 C34.357425,32.0677906 34.3839875,32.1044469 34.421175,32.1527906 C34.4578312,32.2059156 34.506175,32.2638219 34.5539875,32.3227906 C34.7234562,32.5294469 34.9471125,32.7796656 35.2334563,33.0665406 C36.8272062,34.6602906 38.9097062,33.6881031 41.9590812,31.5365406 C42.921175,30.8618531 43.9677375,30.6599781 44.9500187,30.7024781 C45.0137687,30.7024781 45.0828312,30.7077906 45.1465812,30.7178844 C45.71555,30.7550719 46.2568937,30.8724781 46.7456437,31.0260094 C46.9634562,31.4568531 47.1818,31.8871656 47.3943,32.3227906 C47.4368,32.4024781 47.4734562,32.4869469 47.5159563,32.5671656 C47.8671125,33.2896656 48.233675,34.0068531 48.6746125,34.9046656 C48.1008625,34.7394469 47.7343,34.6119469 47.3571125,34.5327906 C45.97055,34.2294469 44.6902375,34.5009156 43.46305,35.1915406 C42.2093,35.8874781 40.9656437,36.6152906 39.6640812,37.2102906 C38.4321125,37.7734156 37.1093,37.6777906 35.823675,37.3218531 C35.271175,37.1677906 35.13305,37.3377906 35.1643938,37.8371656 C35.2233625,38.6074781 35.249925,39.3831031 35.34555,40.1534156 C35.4464875,40.9131031 35.8125187,41.5240406 36.3283625,42.1243531 C38.1027375,44.1903844 39.5312687,46.4540406 39.29805,49.3387281 M32.4497063,53.4187281 L35.6743937,53.4187281 C34.8621125,54.1837281 33.2789875,54.1996656 32.4497063,53.4187281 M27.0739875,40.0365406 C27.1218,39.8027906 27.3183625,39.6221656 27.56805,39.6221656 C27.8496125,39.6221656 28.07805,39.8559156 28.07805,40.1374781 C28.07805,40.3127906 27.9877375,40.4615406 27.8496125,40.5571656 C27.961175,40.5831969 28.0727375,40.6044469 28.1896125,40.6044469 C28.9487688,40.6044469 29.5650188,39.9940406 29.5814875,39.2396656 C30.0272063,39.6434156 30.3996125,40.2171656 30.6328313,41.0193531 C30.6912688,41.2212281 30.5584563,41.4337281 30.3464875,41.4496656 C29.22555,41.5399781 25.95305,41.5771656 24.9378313,39.0372594 C24.8639875,38.8518531 24.9543,38.6388219 25.1508625,38.5862281 C25.5593938,38.4693531 26.2978313,38.3099781 27.1164875,38.3306969 C26.919925,38.5702906 26.7972063,38.8731031 26.7972063,39.2077906 C26.7972063,39.5206969 26.9039875,39.8027906 27.0739875,40.0365406 M22.8771125,46.6718531 C23.3339875,46.2994469 23.7425188,46.0184156 24.0883625,45.6677906 C24.42305,45.3219469 24.6934563,44.9081031 24.9378313,44.4299781 C21.87305,44.3497594 19.014925,43.7818531 16.4489875,42.1137281 C20.5502375,42.9159156 24.63555,43.8243531 28.8797063,42.9159156 C28.3171125,44.6265406 25.1083625,46.6293531 22.8771125,46.6718531 M16.3002375,23.8488219 C16.1833625,24.6727906 16.0877375,25.3952906 15.9921125,26.1119469 C15.9443,26.1231031 15.8964875,26.1337281 15.8539875,26.1443531 C15.7950188,26.0009156 15.699925,25.8622594 15.6946125,25.7193531 C15.6622063,24.8374781 15.6043,23.9556031 15.657425,23.0731969 C15.7153313,22.0431031 16.0346125,21.8619469 17.0381437,22.0696656 C18.5739875,22.3931969 20.1093,22.7013219 21.6493937,22.9993531 C22.1227375,23.0896656 22.606175,23.0997594 23.094925,23.2277906 C21.6440812,23.9077906 20.0928312,23.5624781 18.5793,23.6102906 L18.55805,23.6102906 C18.5368,23.7006031 18.5314875,23.7271656 18.5203312,23.7638219 L18.5203312,23.7749781 C18.51555,23.7962281 18.5043938,23.8281031 18.4943,23.8759156 C19.4558625,24.3699781 20.4121125,24.8640406 21.5537687,25.4537281 C20.8371125,25.4537281 20.2633625,25.5281031 19.7214875,25.4324781 C19.1206437,25.3209156 18.5314875,25.0919469 17.9731438,24.8374781 C17.4365812,24.5931031 16.9531438,24.2424781 16.3002375,23.8488219 M47.022425,22.8718531 C48.3239875,22.6274781 49.6250187,22.3618531 50.9218,22.0797594 C51.96305,21.8518531 52.2972062,22.0324781 52.356175,23.0896656 C52.4140812,24.0884156 52.3508625,25.0977906 52.3397062,26.0965406 C52.2334562,26.1066344 52.1277375,26.1119469 52.0214875,26.1177906 C51.9306437,25.4112281 51.8403312,24.7046656 51.7293,23.8281031 C50.1084562,24.8799781 48.552425,25.7985094 46.5437687,25.4112281 C47.6014875,24.8688219 48.5572062,24.3752906 49.5193,23.8759156 C49.5139875,23.8440406 49.5081437,23.8174781 49.5033625,23.8015406 C49.49805,23.7590406 49.4922062,23.7372594 49.4768,23.6788219 C49.4714875,23.6687281 49.4714875,23.6527906 49.4656437,23.6368531 C47.9462687,23.5146656 46.3631437,23.9391344 44.7056437,23.2171656 C45.6093,23.0843531 46.3206437,23.0046656 47.022425,22.8718531 M55.5383625,41.4124781 C54.8796125,40.7909156 54.1464875,40.1959156 53.6997062,39.4356969 C52.6318937,37.6299781 51.7075187,35.7387281 50.762425,33.8634156 C50.677425,33.6934156 50.7996125,33.2997594 50.9589875,33.1568531 C54.119925,30.1659156 55.1181437,26.4625719 54.5289875,22.2715406 C54.2734562,20.4652906 52.9453312,19.4660094 51.2772062,19.6466344 C50.7571125,19.7056031 50.2258625,19.8171656 49.721175,19.9712281 C47.8458625,20.5396656 45.9540812,20.9965406 43.9783625,20.8419469 C42.8839875,20.7569469 41.8050187,20.5662281 40.7164875,20.4169469 C40.7265812,20.3585094 40.7377375,20.3006031 40.7483625,20.2421656 C41.2578312,20.1353844 41.7625187,20.0296656 42.326175,19.9122594 C42.2093,19.7369469 42.1933625,19.6843531 42.1609562,19.6684156 C42.06055,19.6200719 41.9543,19.5887281 41.8533625,19.5515406 C39.4043,18.7546656 36.9764875,18.8396656 34.5428312,19.6259156 C34.2134562,19.7316344 33.7996125,19.7268531 33.4697062,19.6200719 C32.0358625,19.1796656 30.5850187,18.9193531 29.0868937,19.0043531 C27.961175,19.0675719 26.8614875,19.2434156 25.8308625,19.7002906 C25.8250187,19.7794469 25.8202375,19.8644469 25.814925,19.9499781 C26.303675,20.0450719 26.7972062,20.1412281 27.2918,20.2421656 C25.4589875,20.8106031 23.5996125,21.0549781 21.7243,20.7415406 C20.1778312,20.4812281 18.6643,20.0402906 17.1284562,19.7162281 C15.4768,19.3602906 14.2283625,20.0562281 13.6753312,21.6340406 C13.1552375,23.1162281 13.1818,24.6356031 13.4522062,26.1602906 C13.92555,28.8909156 14.9296125,31.3506031 17.1183625,33.1834156 C17.4418937,33.4543531 17.3839875,33.6881031 17.229925,33.9903844 C16.6450187,35.1591344 16.0983625,36.3443531 15.4868938,37.4971656 C14.7112688,38.9687281 13.8883625,40.4078844 12.5018,41.4278844 C11.9222063,41.8587281 11.917425,42.0287281 12.4593,42.5068531 C13.8134562,43.7021656 15.296175,44.7003844 17.02805,45.2746656 C17.6756437,45.4871656 18.334925,45.6571656 18.9878312,45.8484156 C18.9825187,45.8749781 18.9777375,45.9010094 18.972425,45.9334156 C18.1909562,46.0184156 17.4158625,46.1034156 16.634925,46.1884156 C16.6243,46.2569469 16.6189875,46.3265406 16.6083625,46.3956031 C16.804925,46.5284156 16.9903312,46.6665406 17.1922062,46.7828844 C19.32305,48.0159156 21.607425,48.8340406 24.0293937,49.2372594 C24.9489875,49.3966344 25.5493,49.6681031 26.006175,50.6344469 C26.7387687,52.1856969 27.5839875,53.8065406 29.5703312,54.1890406 C29.6718,54.2102906 29.7727375,54.2841344 29.8518937,54.3531969 C31.0312687,55.3152906 32.4343,55.5277906 33.889925,55.6340406 C36.1902375,55.8093531 37.9322062,54.4121656 39.8818937,53.5988219 C40.0896125,53.5090406 40.264925,53.2906969 40.3977375,53.0888219 C41.0400187,52.1118531 41.6987687,51.1449781 42.2778312,50.1302906 C42.5009562,49.7318531 42.69805,49.4715406 43.1814875,49.3966344 C45.896175,48.9774781 48.4775187,48.1434156 50.8628312,46.7674781 C51.0593937,46.6553844 51.229925,46.5071656 51.4100187,46.3743531 C51.3940812,46.3106031 51.3839875,46.2468531 51.3675187,46.1825719 C50.5871125,46.0981031 49.8056437,46.0131031 48.9768937,45.9227906 C49.0459562,45.8431031 49.062425,45.8165406 49.0783625,45.8165406 C49.2058625,45.7793531 49.3328312,45.7421656 49.4608625,45.7156031 C51.803675,45.2316344 53.7847062,44.0634156 55.5590812,42.5068531 C56.1014875,42.0340406 56.0478312,41.9012281 55.5383625,41.4124781" id="Fill-24" fill="#545454"></path>
                <path d="M29.5813281,39.2397188 C29.5653906,39.9940938 28.9491406,40.6045 28.1894531,40.6045 C28.0725781,40.6045 27.9610156,40.58325 27.8494531,40.5566875 C27.9875781,40.4615937 28.0778906,40.3128437 28.0778906,40.137 C28.0778906,39.8559687 27.8494531,39.6222188 27.5678906,39.6222188 C27.3182031,39.6222188 27.1216406,39.8028438 27.0738281,40.0365938 C26.9038281,39.8028438 26.7975781,39.52075 26.7975781,39.2073125 C26.7975781,38.8731563 26.9197656,38.5703437 27.1163281,38.33075 C27.9503906,38.3525312 28.8636094,38.5756563 29.5813281,39.2397188" id="Fill-26" fill="#783200"></path>
                <path d="M30.3465406,41.449825 C29.2256031,41.5401375 25.9525719,41.5767938 24.9378844,39.0374188 C24.8640406,38.8514813 24.9543531,38.6389813 25.1509156,38.5858563 C25.5594469,38.4695125 26.2978844,38.3101375 27.1165406,38.3308563 C26.9199781,38.57045 26.7972594,38.8727313 26.7972594,39.2074188 C26.7972594,39.5208563 26.9040406,39.8024188 27.0740406,40.0367 C27.1218531,39.8024188 27.3184156,39.622325 27.5681031,39.622325 C27.8496656,39.622325 28.0775719,39.856075 28.0775719,40.1371063 C28.0775719,40.3124188 27.9877906,40.4617 27.8496656,40.5567938 C27.9612281,40.5833563 28.0727906,40.6046063 28.1891344,40.6046063 C28.9488219,40.6046063 29.5650719,39.9942 29.5815406,39.239825 C30.0272594,39.643575 30.3996656,40.217325 30.6328844,41.0189813 C30.6913219,41.2208563 30.5585094,41.4338875 30.3465406,41.449825" id="Fill-28" fill="#EAECEC"></path>
                <path d="M41.3751844,39.2075781 C41.3751844,39.5210156 41.2689344,39.8025781 41.0984031,40.0368594 C41.0511219,39.8025781 40.8545594,39.6219531 40.6048719,39.6219531 C40.3233094,39.6219531 40.0895594,39.8562344 40.0895594,40.1372656 C40.0895594,40.3125781 40.1851844,40.4613281 40.3233094,40.5569531 C40.2117469,40.5835156 40.1001844,40.6047656 39.9833094,40.6047656 C39.2230906,40.6047656 38.6073719,39.9938281 38.5914344,39.2399844 C39.3080906,38.5759219 40.2223719,38.3527969 41.0564344,38.3310156 C41.2529969,38.5706094 41.3751844,38.8728906 41.3751844,39.2075781" id="Fill-30" fill="#783200"></path>
                <path d="M43.2345594,39.0374188 C42.2198719,41.5767938 38.9473719,41.5401375 37.8211219,41.449825 C37.6139344,41.4338875 37.4811219,41.2208563 37.5390281,41.0189813 C37.7733094,40.217325 38.1451844,39.643575 38.5914344,39.239825 C38.6073719,39.9942 39.2230906,40.6046063 39.9833094,40.6046063 C40.1001844,40.6046063 40.2117469,40.5833563 40.3233094,40.5567938 C40.1851844,40.4617 40.0895594,40.3124188 40.0895594,40.1371063 C40.0895594,39.856075 40.3233094,39.622325 40.6048719,39.622325 C40.8545594,39.622325 41.0511219,39.8024188 41.0984031,40.0367 C41.2689344,39.8024188 41.3751844,39.5208563 41.3751844,39.2074188 C41.3751844,38.8727313 41.2529969,38.57045 41.0564344,38.3308563 C41.8740281,38.3101375 42.6129969,38.4695125 43.0220594,38.5858563 C43.2186219,38.6389813 43.3089344,38.8514813 43.2345594,39.0374188" id="Fill-32" fill="#EAECEC"></path>
            </g>
        </g>
    </g>
</svg>